<?xml version="1.0" encoding="UTF-8" standalone="no"?>
<svg xmlns="http://www.w3.org/2000/svg" width="600" height="200" viewBox="0 0 600 200">
  <!-- U with tie -->
  <path d="M25 10 L25 120 Q25 170, 75 170 L100 170 Q150 170, 150 120 L150 10 L120 10 L120 120 Q120 140, 100 140 L75 140 Q55 140, 55 120 L55 10 Z" fill="#001A33"/>
  <!-- Tie -->
  <path d="M87.5 10 L75 50 L87.5 90 L100 50 Z" fill="#001A33"/>
  
  <!-- N -->
  <path d="M180 30 L180 170 L210 170 L210 70 L260 170 L290 170 L290 30 L260 30 L260 130 L210 30 Z" fill="#666666"/>
  
  <!-- E -->
  <path d="M320 30 L320 170 L400 170 L400 140 L350 140 L350 115 L390 115 L390 85 L350 85 L350 60 L400 60 L400 30 Z" fill="#FF9933"/>
  
  <!-- O -->
  <path d="M430 100 Q430 30, 480 30 Q530 30, 530 100 Q530 170, 480 170 Q430 170, 430 100 M460 100 Q460 60, 480 60 Q500 60, 500 100 Q500 140, 480 140 Q460 140, 460 100" fill="#00CC66"/>
  
  <!-- M -->
  <path d="M560 30 L560 170 L530 170 L530 70 L510 110 L490 70 L490 170 L460 170 L460 30 L490 30 L510 80 L530 30 Z" fill="#3399FF"/>
</svg> 